<?xml version="1.0" encoding="utf-8"?>
<!-- Generator: Adobe Illustrator 27.7.0, SVG Export Plug-In . SVG Version: 6.00 Build 0)  -->
<svg version="1.1" id="Capa_1" xmlns="http://www.w3.org/2000/svg" xmlns:xlink="http://www.w3.org/1999/xlink" x="0px" y="0px"
	 viewBox="0 0 330.8 365.9" style="enable-background:new 0 0 330.8 365.9;" xml:space="preserve">
<style type="text/css">
	.st0{fill:url(#SVGID_1_);}
	.st1{fill:none;}
</style>
<linearGradient id="SVGID_1_" gradientUnits="userSpaceOnUse" x1="29.8509" y1="283.7556" x2="295.3239" y2="86.3543">
	<stop  offset="0" style="stop-color:#02D0D9"/>
	<stop  offset="0.46" style="stop-color:#3C76D1"/>
	<stop  offset="0.74" style="stop-color:#7743CB"/>
	<stop  offset="1" style="stop-color:#AB61F3"/>
</linearGradient>
<path class="st0" d="M139.4,7c16.1-9.3,35.9-9.3,52,0l113.4,65.5c16.1,9.3,26,26.5,26,45v131c0,18.6-9.9,35.7-26,45l-113.4,65.5
	c-16.1,9.3-35.9,9.3-52,0L26,293.5c-16.1-9.3-26-26.5-26-45v-131c0-18.6,9.9-35.7,26-45L139.4,7z"/>
<path class="st1" d="M-76.1-31.1l421.6,6.5l86.5,422l-478.5-32.5L-76.1-31.1z"/>
</svg>
