<?xml version="1.0" encoding="utf-8"?>
<!-- Generator: Adobe Illustrator 27.7.0, SVG Export Plug-In . SVG Version: 6.00 Build 0)  -->
<svg version="1.1" id="Capa_1" xmlns="http://www.w3.org/2000/svg" xmlns:xlink="http://www.w3.org/1999/xlink" x="0px" y="0px"
	 viewBox="0 0 149.8 73.2" style="enable-background:new 0 0 149.8 73.2;" xml:space="preserve">
<style type="text/css">
	.st0{fill:#FFFFFF;}
	.st1{fill:url(#SVGID_1_);}
</style>
<path class="st0" d="M75.1,37c0.3,0.1,0.4,0.2,0.4,0.4c0,0.2-0.2,0.4-0.6,0.4c-0.3,0-0.7,0-1-0.1l-0.3-0.1c0,0-0.1,0-0.1,0.1
	l-0.2,0.6c0,0.1,0,0.1,0.1,0.1l0.3,0.1c0.4,0.1,0.8,0.2,1.2,0.2c0.9,0,1.5-0.5,1.5-1.2c0-0.6-0.3-0.9-1-1.1l-0.8-0.2
	c-0.2-0.1-0.4-0.2-0.4-0.4s0.2-0.4,0.6-0.4c0.2,0,0.6,0,0.8,0.1l0.4,0.1c0.1,0,0.1,0,0.1-0.1l0.2-0.6c0-0.1,0-0.1-0.1-0.1l-0.4-0.1
	c-0.3-0.1-0.6-0.1-1-0.1c-0.9,0-1.5,0.4-1.5,1.2c0,0.6,0.3,0.9,1,1.1L75.1,37z"/>
<g>
	
		<linearGradient id="SVGID_1_" gradientUnits="userSpaceOnUse" x1="-0.1299" y1="856.4562" x2="51.3304" y2="812.8585" gradientTransform="matrix(1 0 0 1 0 -792)">
		<stop  offset="0" style="stop-color:#02D0D9"/>
		<stop  offset="0.46" style="stop-color:#3C76D1"/>
		<stop  offset="0.74" style="stop-color:#7743CB"/>
		<stop  offset="1" style="stop-color:#AB61F3"/>
	</linearGradient>
	<path class="st1" d="M29.2,5.1c2.2-1.3,4.8-1.3,7,0l22,12.7c2.2,1.3,3.5,3.6,3.5,6.1v25.4c0,2.5-1.3,4.8-3.5,6.1l-22,12.7
		c-2.2,1.3-4.8,1.3-7,0l-22-12.7c-2.2-1.3-3.5-3.6-3.5-6.1V23.9c0-2.5,1.3-4.8,3.5-6.1L29.2,5.1z"/>
	<path class="st0" d="M48.4,53.2c-0.6,0.1-1.1,0.2-1.7,0.2h-0.1c-0.8,0-1.6-0.1-2.4-0.3L42,54.3c-1.6,0.9-3.2,1.8-4.4,2.5
		c-0.6,0.4-1.1,0.6-1.5,0.9c-0.2,0.1-0.3,0.2-0.4,0.3l-0.1,0.1h-0.1l0,0l0,0c0,0-0.1,0-0.1,0.1c-0.1,0.1-0.3,0.2-0.5,0.2
		c-0.3,0.1-0.6,0.3-0.8,0.4l-0.3,0.1l0,0L33.6,59l-0.2,0.1h-0.1c-0.2,0-0.6,0-1,0.1c-0.2,0-0.4,0-0.6,0c-0.1,0-0.2,0-0.2,0h-0.1
		h-0.1c-0.1,0-0.3,0-0.5-0.1l0,0L30.5,59h-0.2h-0.1c-0.1,0-0.1,0-0.1,0l0,0l0,0c-0.1,0-0.3-0.1-0.4-0.2c-0.1,0-0.1,0-0.1,0l0,0l0,0
		c-0.2-0.1-0.4-0.2-0.6-0.3l-13.6-7.8c-0.5-0.3-0.9-0.6-1.2-0.9c-0.9-0.9-1.5-1.7-1.9-2.5c-0.2-0.4-0.3-0.8-0.4-1.2
		c-0.1-0.4-0.1-0.8-0.1-1.1c0-0.5,0.1-0.9,0.2-1.4c0.2-0.8,0.6-1.5,1.1-2.2c0.5-0.6,1.2-1.2,1.9-1.5c0.9-0.5,1.9-0.7,2.9-0.7
		s2,0.3,2.9,0.8l9.8,5.6l2.3,1.3l5.4-3.6v-3l-5.5,3.6l-0.9-0.5L22,37.7c-1.3-0.7-2.7-1.1-4.2-1.1c-1.4,0-2.9,0.4-4.1,1.1
		c-1.4,0.7-2.5,1.8-3.3,3.1l0,0l0,0c-0.4,0.6-0.7,1.3-0.9,2c-0.2,0.7-0.3,1.4-0.3,2.1c0,0.6,0.1,1.2,0.2,1.8
		c0.2,0.9,0.6,1.7,1.1,2.5c0.6,0.8,1.2,1.6,1.9,2.3c0.5,0.5,1.1,1,1.8,1.3l0,0l13.6,7.8c0.3,0.2,0.5,0.3,0.8,0.4
		c0.1,0,0.1,0.1,0.2,0.1l0,0l0,0l0,0l0,0c0.2,0.1,0.4,0.1,0.6,0.2l0,0c0.1,0,0.1,0,0.2,0h0.1c0.1,0,0.1,0,0.2,0.1
		c0.1,0,0.2,0.1,0.4,0.1h0.1h0.1h0.1l0,0c0.2,0,0.4,0.1,0.7,0.1l0,0c0.1,0,0.1,0,0.1,0l0,0h0.1h0.1h0.1h0.3c0.3,0,0.8-0.1,1.2-0.1
		h0.5h0.1l0,0l0,0l0,0l0,0l0,0l0,0l0,0l0,0l0,0c0.1,0,0.2,0,0.2-0.1c0.1,0,0.3-0.1,0.4-0.1l0.2-0.1h0.1h0.1c0,0,0.4-0.2,0.8-0.4
		c0.2-0.1,0.5-0.2,0.7-0.3c0.1-0.1,0.2-0.1,0.3-0.2c0.1-0.1,0.2-0.1,0.3-0.2h0.1c0.1-0.1,0.5-0.3,0.9-0.5c1.5-0.9,4.5-2.6,7.1-4.1
		l3.4-1.9l1-0.6l0.2-0.1C49.2,53.1,48.8,53.2,48.4,53.2z"/>
	<path class="st0" d="M55.2,28.5c0-1.5-0.5-3.1-1.3-4.4s-1.9-2.5-3.2-3.2l0,0l-13.2-7.2c0.8,0.7,1.5,1.5,2,2.4
		c0.4,0.7,0.7,1.4,0.9,2.1l9.1,5c0.7,0.4,1.3,0.9,1.8,1.6l0,0l0,0c0.9,1.1,1.4,2.4,1.4,3.8V45c0,1.6-0.6,3.1-1.8,4.2
		c-1.1,1.1-2.7,1.8-4.3,1.8l0,0c-0.4,0-0.8,0-1.2-0.1c-0.4-0.1-0.8-0.2-1.1-0.3c-1.1-0.5-2-1.2-2.6-2.2c-0.7-1-1-2.2-1-3.3V32
		l-5.8-3.4L32.4,30l5.8,3.4v11.7c0,2.2,0.9,4.4,2.5,6c1.6,1.6,3.7,2.5,6,2.5h0.1c0.6,0,1.2-0.1,1.7-0.2c0.5-0.1,1.1-0.3,1.6-0.5
		c1.5-0.6,2.9-1.7,3.8-3.1c0.9-1.4,1.4-3,1.4-4.7l0,0L55.2,28.5z"/>
	<path class="st0" d="M9.4,42.8c0.2-0.7,0.5-1.4,0.9-2l0,0l0,0c0.4-0.6,0.8-1.1,1.3-1.6l-0.1-9.8c0-1.1,0.1-1.9,0.4-2.6
		c0.2-0.7,0.6-1.3,1-1.8l0,0l0,0c0.5-0.6,1.1-1.2,1.8-1.6L29,15.2c0.9-0.5,1.9-0.8,3-0.8c1,0,2.1,0.3,3,0.8s1.7,1.3,2.2,2.2
		s0.8,2,0.8,3s-0.3,2.1-0.8,3c-0.5,0.9-1.3,1.7-2.2,2.2l-11.5,6.6v6.6l2.5,1.4v-6.6l10.3-5.9c1-0.6,1.8-1.3,2.5-2.2s1.2-1.9,1.5-3
		c0.3-1.1,0.4-2.2,0.2-3.3c-0.1-1.1-0.5-2.2-1.1-3.1c-0.6-1-1.3-1.8-2.2-2.5s-1.9-1.2-3-1.5s-2.2-0.4-3.3-0.2
		c-1.1,0.1-2.2,0.5-3.2,1.1l-14.3,8.2c-1,0.6-1.8,1.3-2.5,2.2c-0.6,0.8-1.1,1.7-1.5,2.6c-0.3,1-0.5,2.2-0.5,3.5l0,0l0.2,14.7
		C9.2,43.6,9.3,43.2,9.4,42.8z"/>
	<path class="st0" d="M76.5,52c0.3,0.1,0.4,0.2,0.4,0.4s-0.2,0.4-0.6,0.4c-0.3,0-0.7,0-1-0.1L75,52.6c0,0-0.1,0-0.1,0.1l-0.2,0.6
		c0,0.1,0,0.1,0.1,0.1l0.3,0.1c0.4,0.1,0.8,0.2,1.2,0.2c0.9,0,1.5-0.5,1.5-1.2c0-0.6-0.3-0.9-1-1.1L76,51.2
		c-0.2-0.1-0.4-0.2-0.4-0.4c0-0.2,0.2-0.4,0.6-0.4c0.2,0,0.6,0,0.8,0.1l0.4,0.1c0.1,0,0.1,0,0.1-0.1l0.2-0.6c0-0.1,0-0.1-0.1-0.1
		l-0.4-0.1c-0.3-0.1-0.6-0.1-1-0.1c-0.9,0-1.5,0.4-1.5,1.2c0,0.6,0.3,0.9,1,1.1L76.5,52z"/>
	<path class="st0" d="M86.9,49.6v-1.2c0-0.1,0-0.1-0.1-0.1l-0.7,0.2c0,0-0.1,0-0.1,0.1v0.9h-0.4c-0.1,0-0.1,0-0.1,0.1v0.6
		c0,0.1,0,0.1,0.1,0.1H86v1.9c0,0.8,0.4,1.2,1.2,1.2c0.2,0,0.4-0.1,0.5-0.1c0,0,0.1-0.1,0-0.1l-0.3-0.5c0-0.1-0.1-0.1-0.1,0
		c-0.1,0-0.1,0-0.2,0c-0.2,0-0.3-0.2-0.3-0.4v-1.9h0.9c0.1,0,0.1,0,0.1-0.1v-0.6c0-0.1,0-0.1-0.1-0.1H86.9z"/>
	<path class="st0" d="M99.7,53.4C99.7,53.5,99.7,53.5,99.7,53.4l0.5,0.1c0.1,0,0.1,0,0.1-0.1v-3.7c0-0.1,0-0.1-0.1-0.1h-0.7
		c-0.1,0-0.1,0-0.1,0.1v1.9c0,0.8-0.3,1.2-0.9,1.2c-0.4,0-0.7-0.3-0.7-0.8v-2.3c0-0.1,0-0.1-0.1-0.1H97c-0.1,0-0.1,0-0.1,0.1v2.4
		c0,0.9,0.6,1.5,1.5,1.5c0.4,0,0.8-0.1,1.1-0.5c0.1-0.1,0.1-0.1,0.2,0V53.4z"/>
	<path class="st0" d="M112.9,47.8L112.9,47.8l-0.8-0.1c-0.1,0-0.1,0-0.1,0.1v1.9l-0.2-0.1c-0.2-0.1-0.4-0.1-0.7-0.1
		c-1.1,0-1.8,0.8-1.8,2c0,1.2,0.6,2,1.7,2c0.4,0,0.8-0.2,1.1-0.5c0.1-0.1,0.1-0.1,0.2,0l0.1,0.3c0,0,0,0.1,0.1,0.1h0.4
		c0.1,0,0.1,0,0.1-0.1v-5.5H112.9z M112.1,50.6v1c0,0.7-0.3,1.2-0.9,1.2c-0.6,0-0.9-0.5-0.9-1.2c0-0.8,0.4-1.2,1-1.2
		c0.2,0,0.5,0,0.7,0.1L112.1,50.6z"/>
	<path class="st0" d="M122.8,47.7c-0.3,0-0.5,0.2-0.5,0.5c0,0.3,0.2,0.5,0.5,0.5s0.5-0.2,0.5-0.5C123.3,47.9,123.1,47.7,122.8,47.7z
		 M123.3,49.7C123.3,49.6,123.3,49.6,123.3,49.7l-1.3-0.1c-0.1,0-0.1,0-0.1,0.1v0.6c0,0.1,0,0.1,0.1,0.1h0.4v3c0,0.1,0,0.1,0.1,0.1
		h0.7c0.1,0,0.1,0,0.1-0.1V49.7z"/>
	<path class="st0" d="M134.2,49.5c-1.1,0-1.9,0.8-1.9,2c0,1.2,0.7,2,1.9,2c1.1,0,1.9-0.8,1.9-2C136.1,50.3,135.3,49.5,134.2,49.5z
		 M134.2,50.3c0.6,0,1,0.5,1,1.2c0,0.8-0.4,1.2-1,1.2s-1-0.5-1-1.2C133.2,50.8,133.6,50.3,134.2,50.3z"/>
	<path class="st0" d="M86.7,22.5c0,1-0.8,1.8-1.8,1.8h-6.2v19.4c0,1-0.8,1.8-1.8,1.8h-0.5c-1,0-1.8-0.8-1.8-1.8V24.3h-6.1
		c-1,0-1.8-0.8-1.8-1.8s0.8-1.8,1.8-1.8h16.4C85.9,20.7,86.7,21.5,86.7,22.5z"/>
	<path class="st0" d="M99.8,31.1c0,0.2-0.1,0.4-0.4,0.4c-3.9,0.2-5.6,2.9-5.6,9.4v2.6c0,1.1-0.9,2-2,2s-2-0.9-2-2V30.2
		c0-1.1,0.9-2,2-2H92c0.2,0,0.4,0.1,0.5,0.3l0.6,2c0.2,0.4,0.4,0.5,0.7,0.1c1.4-1.8,3-2.7,5.6-2.8c0.2,0,0.4,0.1,0.4,0.4V31.1z"/>
	<path class="st0" d="M109,43.3c0,0.3-0.2,0.5-0.5,0.5h-2.9c-0.3,0-0.5-0.2-0.5-0.5V31.9c0-0.1-0.1-0.1-0.1-0.1h-1.5
		c-0.3,0-0.5-0.2-0.5-0.5v-2.5c0-0.3,0.2-0.5,0.5-0.5h5c0.3,0,0.5,0.2,0.5,0.5V43.3z M109,22.8c-0.2,1.1-1,1.8-2.3,1.8
		c-1.5,0-2.4-0.9-2.4-2.4c0-1.3,0.6-2.1,1.7-2.3C107.7,19.5,109.3,21.1,109,22.8z"/>
	<path class="st0" d="M124.4,44.9c-1,0.3-2.1,0.4-3.2,0.4c-5.3,0-8.2-3.4-8.2-8.8c0-5.3,2.9-8.7,8.3-8.7c0.9,0,1.9,0.1,3,0.4
		l1.5,0.4c0.2,0.1,0.3,0.2,0.3,0.5l-0.8,2.6c-0.1,0.2-0.2,0.3-0.5,0.2l-1.2-0.3c-0.9-0.3-1.7-0.4-2.3-0.4c-3.1,0-4.5,2-4.5,5.2
		c0,3.3,1.5,5.3,4.4,5.3c0.7,0,1.7-0.1,2.6-0.4l1.1-0.3c0.2-0.1,0.4,0,0.5,0.2l0.8,2.6c0.1,0.2,0,0.4-0.3,0.5L124.4,44.9z"/>
	<path class="st0" d="M145.9,45c0.2,0.2,0,0.5-0.3,0.5h-3.5c-0.2,0-0.4-0.1-0.5-0.2l-2.5-3.9c-1-1.5-2-2.7-3.9-2.7h-0.5v4.9
		c0,1.1-0.9,2-2,2s-2-0.9-2-2V22.1c0-1.1,0.9-2,2-2s2,0.9,2,2v13h0.5c1.7,0,2.8-1.5,3.7-2.9l2.3-3.6c0.1-0.2,0.3-0.2,0.5-0.2h3.5
		c0.3,0,0.4,0.2,0.3,0.5l-3.1,5c-0.9,1.3-2,2.3-3.1,2.8c-0.1,0.1-0.2,0.2,0,0.3c1.2,0.5,2.4,1.5,3.3,2.9L145.9,45z"/>
	<path class="st0" d="M107.1,45.4c1.1,0,2-0.9,2-2s-0.9-2-2-2s-2,0.9-2,2S106,45.4,107.1,45.4z"/>
</g>
</svg>
