<?xml version="1.0" encoding="utf-8"?>
<!-- Generator: Adobe Illustrator 27.7.0, SVG Export Plug-In . SVG Version: 6.00 Build 0)  -->
<svg version="1.1" id="Capa_1" xmlns="http://www.w3.org/2000/svg" xmlns:xlink="http://www.w3.org/1999/xlink" x="0px" y="0px"
	 viewBox="0 0 155 57" style="enable-background:new 0 0 155 57;" xml:space="preserve">
<style type="text/css">
	.st0{fill:#FFFFFF;}
</style>
<g>
	<path class="st0" d="M44.5,46.9c-0.6,0.1-1.3,0.2-1.9,0.2h-0.1c-0.9,0-1.8-0.1-2.7-0.4l-2.4,1.4c-1.8,1-3.6,2.1-5,2.9
		c-0.7,0.4-1.3,0.7-1.7,1c-0.2,0.1-0.4,0.2-0.5,0.3L30,52.4l-0.1,0l0,0l0,0c0,0-0.1,0-0.1,0.1c-0.1,0.1-0.3,0.2-0.5,0.3
		c-0.3,0.2-0.6,0.3-0.9,0.4l-0.3,0.1l0,0l-0.2,0.1l-0.2,0.1l-0.1,0c-0.2,0-0.6,0.1-1.1,0.1c-0.2,0-0.5,0-0.7,0c-0.1,0-0.2,0-0.3,0
		h-0.1l-0.1,0c-0.2,0-0.3,0-0.5-0.1h0l-0.3-0.1l-0.2,0l-0.1,0c-0.1,0-0.1,0-0.1,0l0,0h0c-0.1,0-0.3-0.1-0.5-0.2
		c-0.1,0-0.1,0-0.1-0.1l0,0h0c-0.2-0.1-0.4-0.2-0.6-0.3l0,0L7.2,44c-0.5-0.3-1-0.7-1.4-1.1l0,0c-1-1-1.7-1.9-2.2-2.8
		c-0.2-0.4-0.4-0.9-0.5-1.3C3,38.4,3,38,3,37.5c0-0.5,0.1-1,0.2-1.5c0.3-0.9,0.7-1.7,1.3-2.4s1.3-1.3,2.2-1.7c1-0.6,2.1-0.8,3.3-0.8
		c1.2,0,2.3,0.3,3.3,0.9l11.1,6.4l2.6,1.5l6.1-4v-3.4l-6.2,4.1l-1-0.6l-11.1-6.4c-1.4-0.8-3.1-1.3-4.7-1.3c-1.6,0-3.2,0.4-4.7,1.2
		c-1.5,0.8-2.8,2.1-3.8,3.5l0,0l0,0c-0.4,0.7-0.8,1.5-1,2.3c-0.2,0.8-0.3,1.5-0.3,2.3c0,0.7,0.1,1.3,0.3,2c0.3,1,0.7,2,1.3,2.8
		c0.6,1,1.4,1.8,2.2,2.6l0,0c0.6,0.6,1.3,1.1,2,1.5l0,0l15.3,8.8c0.3,0.2,0.6,0.3,0.9,0.5c0.1,0,0.1,0.1,0.2,0.1l0,0h0h0h0
		c0.2,0.1,0.4,0.2,0.7,0.3h0c0.1,0,0.1,0,0.2,0.1l0.1,0c0.1,0,0.2,0,0.3,0.1c0.1,0,0.3,0.1,0.4,0.1l0.2,0l0.1,0l0.1,0h0
		c0.2,0,0.5,0.1,0.8,0.1h0c0.1,0,0.1,0,0.2,0h0c0,0,0.1,0,0.1,0h0.1h0.1l0.3,0c0.4,0,0.9-0.1,1.3-0.1l0.5,0l0.2,0h0.1h0h0h0h0l0.1,0
		h0h0h0c0.1,0,0.2,0,0.3-0.1c0.1,0,0.3-0.1,0.4-0.1l0.2-0.1l0.1,0l0.1,0c0,0,0.4-0.2,0.9-0.4c0.3-0.1,0.5-0.3,0.8-0.4
		c0.1-0.1,0.2-0.1,0.4-0.2c0.1-0.1,0.2-0.1,0.3-0.2l0.1,0c0.2-0.1,0.5-0.3,1-0.6c1.7-1,5.1-2.9,8-4.6l3.8-2.2l1.2-0.7l0.3-0.1
		C45.4,46.7,45,46.8,44.5,46.9z"/>
	<path class="st0" d="M52.2,19c-0.1-1.8-0.5-3.5-1.4-5c-0.9-1.5-2.2-2.8-3.7-3.7l0,0l-15-8.2c0.9,0.7,1.7,1.6,2.3,2.7
		c0.4,0.7,0.8,1.5,1,2.3l10.3,5.6c0.8,0.4,1.5,1.1,2,1.8l0,0l0,0c1,1.2,1.6,2.8,1.6,4.3l0,18.6c0,1.8-0.7,3.5-2,4.8
		c-1.3,1.3-3,2-4.8,2h0c-0.5,0-0.9,0-1.4-0.1c-0.4-0.1-0.9-0.2-1.3-0.4c-1.2-0.5-2.3-1.4-3-2.5c-0.8-1.1-1.2-2.4-1.2-3.8l0-14.8
		l-6.6-3.8l-2.8,1.6l6.6,3.8l0,13.2c0,2.5,1,5,2.8,6.8c1.8,1.8,4.2,2.8,6.8,2.8h0.1c0.7,0,1.3-0.1,1.9-0.2c0.6-0.1,1.2-0.3,1.8-0.6
		c1.7-0.7,3.2-2,4.3-3.5c1-1.6,1.6-3.4,1.6-5.3v0L52.2,19z"/>
	<path class="st0" d="M0.5,35.2c0.2-0.8,0.6-1.6,1-2.3l0,0l0,0C1.9,32.2,2.4,31.6,3,31L2.8,19.9c0-1.2,0.2-2.2,0.4-3
		c0.3-0.7,0.6-1.4,1.2-2l0,0l0,0c0.5-0.7,1.2-1.3,2-1.8l0,0l16.1-9.3c1-0.6,2.2-0.9,3.4-0.9c1.2,0,2.3,0.3,3.4,0.9
		c1,0.6,1.9,1.4,2.5,2.5c0.6,1,0.9,2.2,0.9,3.4c0,1.2-0.3,2.3-0.9,3.3c-0.6,1-1.5,1.9-2.5,2.5l-13,7.5l0,7.5l2.9,1.6l0-7.5l11.6-6.7
		c1.1-0.6,2.1-1.5,2.8-2.5c0.8-1,1.3-2.1,1.7-3.4s0.4-2.5,0.2-3.7c-0.2-1.3-0.6-2.5-1.2-3.5l0,0c-0.6-1.1-1.5-2.1-2.5-2.8
		c-1-0.8-2.2-1.3-3.4-1.7s-2.5-0.4-3.8-0.2c-1.3,0.2-2.5,0.6-3.6,1.2L5.1,10.6C4,11.2,3,12,2.3,13C1.5,13.9,1,14.9,0.6,16
		C0.2,17.1,0,18.4,0,19.9v0l0.2,16.6C0.2,36.1,0.3,35.6,0.5,35.2L0.5,35.2z"/>
	<path class="st0" d="M75.7,45.5c0.3,0.1,0.4,0.2,0.4,0.4c0,0.3-0.3,0.5-0.7,0.5c-0.3,0-0.8-0.1-1.2-0.2L74,46.2
		c-0.1,0-0.1,0-0.1,0.1l-0.2,0.7c0,0.1,0,0.1,0.1,0.1l0.4,0.1c0.4,0.1,0.9,0.2,1.4,0.2c1.1,0,1.7-0.5,1.7-1.4c0-0.7-0.4-1.1-1.1-1.3
		l-0.9-0.2c-0.3-0.1-0.4-0.2-0.4-0.4c0-0.2,0.2-0.4,0.7-0.4c0.3,0,0.6,0,0.9,0.1l0.4,0.1c0.1,0,0.1,0,0.1-0.1l0.2-0.7
		c0-0.1,0-0.1-0.1-0.1l-0.4-0.1c-0.3-0.1-0.7-0.1-1.1-0.1c-1.1,0-1.7,0.5-1.7,1.3c0,0.7,0.4,1,1.1,1.2L75.7,45.5z"/>
	<path class="st0" d="M87.4,42.8v-1.3c0-0.1,0-0.1-0.1-0.1l-0.8,0.3c-0.1,0-0.1,0.1-0.1,0.1v1H86c-0.1,0-0.1,0-0.1,0.1v0.7
		c0,0.1,0,0.1,0.1,0.1h0.4v2.2c0,0.9,0.5,1.4,1.4,1.4c0.2,0,0.5-0.1,0.6-0.2c0.1,0,0.1-0.1,0-0.1l-0.3-0.6c0-0.1-0.1-0.1-0.1,0
		c-0.1,0-0.2,0-0.2,0c-0.2,0-0.4-0.2-0.4-0.5v-2.2h1c0.1,0,0.1,0,0.1-0.1v-0.7c0-0.1,0-0.1-0.1-0.1H87.4z"/>
	<path class="st0" d="M101.9,47.1c0,0.1,0,0.1,0.1,0.1h0.5c0.1,0,0.1,0,0.1-0.1v-4.2c0-0.1,0-0.1-0.1-0.1h-0.8c-0.1,0-0.1,0-0.1,0.1
		v2.1c0,0.9-0.4,1.4-1.1,1.4c-0.5,0-0.8-0.3-0.8-0.9v-2.6c0-0.1,0-0.1-0.1-0.1h-0.8c-0.1,0-0.1,0-0.1,0.1v2.7c0,1.1,0.6,1.7,1.7,1.7
		c0.4,0,0.9-0.2,1.3-0.6c0.1-0.1,0.2-0.1,0.2,0L101.9,47.1z"/>
	<path class="st0" d="M116.9,40.8C116.9,40.8,116.9,40.7,116.9,40.8l-0.9-0.1c-0.1,0-0.1,0-0.1,0.1V43l-0.3-0.1
		c-0.3-0.1-0.5-0.2-0.8-0.2c-1.3,0-2,0.9-2,2.3c0,1.4,0.7,2.3,1.9,2.3c0.5,0,0.9-0.2,1.3-0.6c0.1-0.1,0.2-0.1,0.2,0l0.1,0.4
		c0,0.1,0,0.1,0.1,0.1h0.5c0.1,0,0.1,0,0.1-0.1V40.8z M115.9,43.9v1.1c0,0.8-0.4,1.3-1,1.3c-0.7,0-1.1-0.5-1.1-1.4
		c0-0.9,0.4-1.4,1.1-1.4c0.3,0,0.5,0.1,0.7,0.2L115.9,43.9z"/>
	<path class="st0" d="M128,40.7c-0.4,0-0.6,0.2-0.6,0.6c0,0.4,0.2,0.6,0.6,0.6s0.6-0.2,0.6-0.6C128.6,40.9,128.4,40.7,128,40.7z
		 M128.6,42.9C128.6,42.9,128.6,42.8,128.6,42.9l-1.5-0.1c-0.1,0-0.1,0-0.1,0.1v0.7c0,0.1,0,0.1,0.1,0.1h0.4v3.4
		c0,0.1,0,0.1,0.1,0.1h0.8c0.1,0,0.1,0,0.1-0.1V42.9z"/>
	<path class="st0" d="M140.9,42.8c-1.3,0-2.1,0.9-2.1,2.3c0,1.4,0.8,2.3,2.1,2.3c1.3,0,2.1-0.9,2.1-2.3
		C143,43.6,142.2,42.8,140.9,42.8z M140.9,43.7c0.7,0,1.1,0.5,1.1,1.4c0,0.9-0.4,1.4-1.1,1.4c-0.7,0-1.1-0.5-1.1-1.4
		C139.8,44.2,140.2,43.7,140.9,43.7z"/>
	<path class="st0" d="M152.8,45.5c0.3,0.1,0.4,0.2,0.4,0.4c0,0.3-0.3,0.5-0.7,0.5c-0.3,0-0.8-0.1-1.2-0.2l-0.3-0.1
		c-0.1,0-0.1,0-0.1,0.1l-0.2,0.7c0,0.1,0,0.1,0.1,0.1l0.4,0.1c0.4,0.1,0.9,0.2,1.4,0.2c1.1,0,1.7-0.5,1.7-1.4c0-0.7-0.4-1.1-1.1-1.3
		l-0.9-0.2c-0.3-0.1-0.4-0.2-0.4-0.4c0-0.2,0.2-0.4,0.7-0.4c0.3,0,0.6,0,0.9,0.1l0.4,0.1c0.1,0,0.1,0,0.1-0.1l0.2-0.7
		c0-0.1,0-0.1-0.1-0.1l-0.4-0.1c-0.3-0.1-0.7-0.1-1.1-0.1c-1.1,0-1.7,0.5-1.7,1.3c0,0.7,0.4,1,1.1,1.2L152.8,45.5z"/>
	<path class="st0" d="M87.2,12.2c0,1.1-0.9,2-2,2h-7v21.9c0,1.1-0.9,2-2,2h-0.5c-1.1,0-2-0.9-2-2V14.2h-6.9c-1.1,0-2-0.9-2-2
		c0-1.1,0.9-2,2-2h18.5C86.3,10.2,87.2,11.1,87.2,12.2z"/>
	<path class="st0" d="M102,21.9c0,0.3-0.2,0.4-0.4,0.4c-4.4,0.2-6.3,3.2-6.3,10.6v3c0,1.2-1,2.2-2.2,2.2c-1.2,0-2.2-1-2.2-2.2V21
		c0-1.2,1-2.2,2.2-2.2h0.2c0.3,0,0.4,0.1,0.5,0.4l0.6,2.3c0.2,0.4,0.4,0.5,0.8,0.1c1.6-2.1,3.4-3.1,6.4-3.2c0.3,0,0.4,0.2,0.4,0.4
		V21.9z"/>
	<path class="st0" d="M112.5,35.8c0,0.3-0.3,0.6-0.6,0.6h-3.3c-0.3,0-0.6-0.3-0.6-0.6V22.9c0-0.1-0.1-0.1-0.1-0.1h-1.7
		c-0.3,0-0.6-0.3-0.6-0.6v-2.8c0-0.3,0.3-0.6,0.6-0.6h5.7c0.3,0,0.6,0.3,0.6,0.6V35.8z M112.4,12.5c-0.2,1.3-1.1,2-2.6,2
		c-1.7,0-2.7-1-2.7-2.7c0-1.4,0.7-2.4,2-2.6C111,8.8,112.7,10.6,112.4,12.5z"/>
	<path class="st0" d="M129.8,37.6c-1.2,0.3-2.4,0.5-3.6,0.5c-6,0-9.3-3.8-9.3-9.9c0-6,3.2-9.8,9.4-9.8c1,0,2.1,0.1,3.4,0.5l1.7,0.5
		c0.3,0.1,0.4,0.3,0.3,0.5l-0.9,2.9c-0.1,0.2-0.3,0.4-0.5,0.3l-1.3-0.4c-1-0.3-1.9-0.4-2.6-0.4c-3.5,0-5.1,2.2-5.1,5.9
		c0,3.8,1.7,6,5,6c0.8,0,1.9-0.2,2.9-0.4l1.3-0.4c0.3-0.1,0.5,0,0.5,0.3l0.9,2.9c0.1,0.3,0,0.5-0.3,0.5L129.8,37.6z"/>
	<path class="st0" d="M154.1,37.7c0.2,0.3,0,0.5-0.3,0.5h-4c-0.2,0-0.4-0.1-0.6-0.3l-2.8-4.4c-1.1-1.7-2.3-3.1-4.5-3.1h-0.6V36
		c0,1.2-1,2.2-2.2,2.2c-1.2,0-2.2-1-2.2-2.2V11.7c0-1.2,1-2.2,2.2-2.2c1.2,0,2.2,1,2.2,2.2v14.7h0.6c2,0,3.1-1.7,4.2-3.3l2.7-4
		c0.2-0.2,0.3-0.3,0.6-0.3h3.9c0.4,0,0.5,0.2,0.3,0.5l-3.5,5.7c-1,1.5-2.2,2.6-3.5,3.1c-0.2,0.1-0.2,0.2,0,0.3
		c1.4,0.6,2.7,1.7,3.7,3.2L154.1,37.7z"/>
	<path class="st0" d="M110.3,38.1c1.2,0,2.2-1,2.2-2.2c0-1.2-1-2.2-2.2-2.2c-1.2,0-2.2,1-2.2,2.2C108,37.1,109,38.1,110.3,38.1z"/>
</g>
</svg>
